#N canvas 1100 161 797 719 10;
#X obj 610 68 tgl 15 0 empty empty empty 17 7 0 10 -262144 -1 -1 1
1;
#X msg 610 93 \; pd dsp \$1;
#X obj 231 447 bng 15 250 50 0 empty empty empty 17 7 0 10 -262144
-1 -1;
#N canvas 373 222 1019 577 Shoot 0;
#X obj 53 55 inlet;
#X obj 19 264 vline~;
#X obj 19 402 *~;
#X obj 11 455 dac~;
#X obj 164 283 vline~;
#X obj 157 315 phasor~;
#X obj 157 224 delay 30;
#X msg 165 256 500 10 0 \, 0 200 60;
#X obj 15 305 phasor~;
#X msg 20 225 600 10 0 \, 0 20 40;
#X msg 131 396 0.15;
#X obj 23 171 trigger bang bang bang;
#X obj 332 235 delay 300;
#X msg 133 442 0;
#X connect 0 0 10 0;
#X connect 0 0 11 0;
#X connect 1 0 8 0;
#X connect 2 0 3 0;
#X connect 2 0 3 1;
#X connect 4 0 5 0;
#X connect 5 0 2 0;
#X connect 6 0 7 0;
#X connect 7 0 4 0;
#X connect 8 0 2 0;
#X connect 9 0 1 0;
#X connect 10 0 2 1;
#X connect 11 0 9 0;
#X connect 11 1 6 0;
#X connect 11 2 12 0;
#X connect 12 0 13 0;
#X connect 13 0 2 1;
#X restore 231 486 pd Shoot;
#N canvas 969 273 830 564 Destroy 0;
#X obj 136 35 inlet;
#X obj 166 468 *~;
#X obj 157 513 dac~;
#X obj 127 324 osc~;
#X obj 127 357 *~;
#X obj 72 420 *~;
#X obj 47 349 osc~;
#X obj 127 254 vline~;
#X msg 47 305 9;
#X msg 186 303 3;
#X obj 307 167 delay 20;
#X msg 34 194 500 20;
#X msg 314 220 0 500;
#X obj 287 319 noise~;
#X obj 271 357 *~;
#X obj 247 333 vline~;
#X msg 248 299 1 20 \, 0 20 40;
#X msg 281 448 0.15;
#X obj 136 82 trigger bang bang bang bang;
#X msg 283 486 0;
#X obj 396 169 delay 700;
#X connect 0 0 17 0;
#X connect 0 0 8 0;
#X connect 0 0 9 0;
#X connect 0 0 18 0;
#X connect 1 0 2 0;
#X connect 1 0 2 1;
#X connect 3 0 4 0;
#X connect 4 0 5 1;
#X connect 5 0 1 0;
#X connect 6 0 5 0;
#X connect 7 0 3 0;
#X connect 8 0 6 0;
#X connect 9 0 4 1;
#X connect 10 0 12 0;
#X connect 11 0 7 0;
#X connect 12 0 7 0;
#X connect 13 0 14 1;
#X connect 14 0 1 0;
#X connect 15 0 14 0;
#X connect 16 0 15 0;
#X connect 17 0 1 1;
#X connect 18 0 11 0;
#X connect 18 1 16 0;
#X connect 18 2 10 0;
#X connect 18 3 20 0;
#X connect 19 0 1 1;
#X connect 20 0 19 0;
#X restore 133 488 pd Destroy;
#X obj 133 444 bng 15 250 50 0 empty empty empty 17 7 0 10 -262144
-1 -1;
#X obj 44 450 bng 15 250 50 0 empty empty empty 17 7 0 10 -262144 -1
-1;
#N canvas 549 234 872 562 Reload 0;
#X obj 372 52 inlet;
#X obj 374 108 trigger bang bang bang bang;
#X obj 36 211 vline~;
#X obj 269 279 vline~;
#X obj 332 486 *~;
#X obj 324 539 dac~;
#X obj 479 279 vline~;
#X obj 687 281 vline~;
#X obj 330 443 phasor~;
#X msg 40 183 200 10 0 \, 300 10 20 \, 0 40 40;
#X msg 267 237 400 10 0 \, 500 10 20 \, 0 40 40;
#X msg 477 237 600 10 0 \, 700 10 20 \, 0 40 40;
#X msg 685 239 800 10 0 \, 900 10 20 \, 0 40 40;
#X msg 416 457 0.15;
#X obj 685 198 delay 0;
#X obj 477 196 delay 150;
#X obj 267 196 delay 300;
#X obj 190 108 delay 450;
#X connect 0 0 1 0;
#X connect 0 0 13 0;
#X connect 1 0 17 0;
#X connect 1 1 16 0;
#X connect 1 2 15 0;
#X connect 1 3 14 0;
#X connect 2 0 8 0;
#X connect 3 0 8 0;
#X connect 4 0 5 0;
#X connect 4 0 5 1;
#X connect 6 0 8 0;
#X connect 7 0 8 0;
#X connect 8 0 4 0;
#X connect 9 0 2 0;
#X connect 10 0 3 0;
#X connect 11 0 6 0;
#X connect 12 0 7 0;
#X connect 13 0 4 1;
#X connect 14 0 12 0;
#X connect 15 0 11 0;
#X connect 16 0 10 0;
#X connect 17 0 9 0;
#X restore 44 490 pd Reload;
#N canvas 878 149 998 702 Enemies 0;
#X obj 80 60 inlet;
#X obj 243 60 inlet;
#X obj 532 607 dac~;
#X obj 531 569 *~;
#X obj 78 206 vline~;
#X msg 76 165 150 10 \, 0 50 60;
#X obj 78 127 metro 400;
#X obj 55 233 osc~;
#X obj 236 127 metro 400;
#X msg 234 165 150 10 \, 0 50 60 \, 150 10 110 \, 0 50 160;
#X obj 554 523 inlet;
#X connect 0 0 6 0;
#X connect 1 0 8 0;
#X connect 3 0 2 0;
#X connect 3 0 2 1;
#X connect 4 0 7 0;
#X connect 5 0 4 0;
#X connect 6 0 5 0;
#X connect 7 0 3 0;
#X connect 8 0 9 0;
#X connect 9 0 4 0;
#X connect 10 0 3 1;
#X restore 488 597 pd Enemies;
#X obj 484 504 tgl 15 0 empty empty empty 17 7 0 10 -262144 -1 -1 0
1;
#X obj 541 507 tgl 15 0 empty empty empty 17 7 0 10 -262144 -1 -1 0
1;
#X obj 364 506 tgl 15 0 empty empty empty 17 7 0 10 -262144 -1 -1 0
1;
#X obj 333 508 bng 15 250 50 0 empty empty empty 17 7 0 10 -262144
-1 -1;
#N canvas 592 80 1242 1033 Theme 0;
#X obj 118 427 qlist;
#X msg 189 289 rewind;
#X floatatom 111 455 0 0 0 0 - - -;
#X obj 165 461 print done;
#X text 127 143 set relative tempo;
#X text 243 289 go to beginning (and stop);
#X msg 191 312 clear;
#X text 232 312 empty the qlist;
#X floatatom 513 114 5 0 0 0 - - -;
#X obj 485 106 bng 15 250 50 0 empty empty empty 17 7 0 10 -262144
-1 -1;
#X obj 867 179 unpack 0 0 0;
#X floatatom 856 206 5 0 0 0 - - -;
#X floatatom 897 206 5 0 0 0 - - -;
#X floatatom 940 206 5 0 0 0 - - -;
#X obj 513 77 r mel;
#X obj 867 150 r chd;
#X obj 165 484 s selScript;
#X msg 174 377 read script1.txt;
#X obj 182 396 r loadScript;
#X obj 174 191 r playScript;
#X obj 174 213 bng 15 250 50 0 empty empty empty 17 7 0 10 -262144
-1 -1;
#X obj 174 238 spigot 0;
#X obj 219 214 tgl 15 0 empty empty empty 17 7 0 10 -262144 -1 -1 0
1;
#N canvas 474 512 363 414 readScripts 0;
#X obj 114 69 bng 15 250 50 0 empty empty empty 17 7 0 10 -262144 -1
-1;
#X obj 91 166 bng 15 250 50 0 empty empty empty 17 7 0 10 -262144 -1
-1;
#X obj 119 165 bng 15 250 50 0 empty empty empty 17 7 0 10 -262144
-1 -1;
#X obj 146 164 bng 15 250 50 0 empty empty empty 17 7 0 10 -262144
-1 -1;
#X obj 114 43 r selScript;
#X obj 133 360 s loadScript;
#X obj 46 361 s playScript;
#X obj 82 313 t b a;
#X obj 169 168 bng 15 250 50 0 empty empty empty 17 7 0 10 -262144
-1 -1;
#X msg 107 220 read script0.txt;
#X msg 130 242 read script1.txt;
#X msg 148 264 read script2.txt;
#X msg 163 286 read script3.txt;
#X obj 114 94 random 5;
#X obj 112 131 select 0 1 2 3 4;
#X msg 179 309 read script4.txt;
#X obj 194 173 bng 15 250 50 0 empty empty empty 17 7 0 10 -262144
-1 -1;
#X connect 0 0 13 0;
#X connect 1 0 9 0;
#X connect 2 0 10 0;
#X connect 3 0 11 0;
#X connect 4 0 0 0;
#X connect 7 0 6 0;
#X connect 7 1 5 0;
#X connect 8 0 12 0;
#X connect 9 0 7 0;
#X connect 10 0 7 0;
#X connect 11 0 7 0;
#X connect 12 0 7 0;
#X connect 13 0 14 0;
#X connect 14 0 1 0;
#X connect 14 1 2 0;
#X connect 14 2 3 0;
#X connect 14 3 8 0;
#X connect 14 4 16 0;
#X connect 15 0 7 0;
#X connect 16 0 15 0;
#X restore 145 115 pd readScripts;
#X obj 843 492 osc~;
#X floatatom 843 445 5 0 0 0 - - -;
#X obj 843 528 *~;
#X floatatom 1058 479 5 0 0 0 - - -;
#X obj 913 492 osc~;
#X floatatom 913 445 5 0 0 0 - - -;
#X obj 913 528 *~;
#X obj 971 490 osc~;
#X floatatom 971 443 5 0 0 0 - - -;
#X obj 971 526 *~;
#X obj 843 492 osc~;
#X floatatom 843 445 5 0 0 0 - - -;
#X obj 843 528 *~;
#X obj 842 416 mtof;
#X obj 842 389 + 0;
#X obj 911 416 mtof;
#X obj 911 389 + 0;
#X obj 969 415 mtof;
#X obj 969 388 + 0;
#X floatatom 794 264 5 0 0 0 - - -;
#X obj 516 455 phasor~;
#X floatatom 516 426 5 0 0 0 - - -;
#X obj 516 546 *~;
#X floatatom 530 521 5 0 0 0 - - -;
#X obj 749 658 dac~, f 6;
#X msg 426 192 0;
#X msg 453 191 2;
#X msg 482 192 4;
#X msg 568 195 9;
#X obj 516 399 mtof;
#X obj 514 349 + 0;
#X msg 537 194 7;
#X msg 510 193 5;
#X msg 597 196 11;
#X msg 76 142 tempo 1;
#X obj 784 150 loadbang;
#X msg 792 208 60;
#X obj 511 142 select 1 2 3 4 5 6 7 8 9 10 11 12;
#X msg 625 197 12;
#X msg 654 196 14;
#X msg 685 196 16;
#X msg 712 196 17;
#X msg 743 196 19;
#X text 54 548 Raise both volumes as desired \, activate dsp \, check
the box on the left \, then click the bang to start;
#X text 253 655 WIP of course;
#X obj 265 127 inlet;
#X obj 324 122 inlet;
#X msg 1064 433 0.075;
#X msg 583 494 0.075;
#X obj 705 342 inlet;
#X msg 612 448 0;
#X msg 1044 391 0;
#X obj 258 158 delay 2;
#X connect 0 0 2 0;
#X connect 0 1 3 0;
#X connect 0 1 16 0;
#X connect 1 0 0 0;
#X connect 6 0 0 0;
#X connect 8 0 61 0;
#X connect 10 0 11 0;
#X connect 10 1 12 0;
#X connect 10 2 13 0;
#X connect 11 0 38 0;
#X connect 12 0 40 0;
#X connect 13 0 42 0;
#X connect 14 0 8 0;
#X connect 14 0 9 0;
#X connect 15 0 10 0;
#X connect 17 0 0 0;
#X connect 18 0 0 0;
#X connect 19 0 20 0;
#X connect 20 0 21 0;
#X connect 21 0 0 0;
#X connect 22 0 21 1;
#X connect 24 0 26 0;
#X connect 25 0 24 0;
#X connect 26 0 48 0;
#X connect 26 0 48 1;
#X connect 27 0 26 1;
#X connect 27 0 30 1;
#X connect 27 0 33 1;
#X connect 28 0 30 0;
#X connect 29 0 28 0;
#X connect 30 0 48 0;
#X connect 30 0 48 1;
#X connect 31 0 33 0;
#X connect 32 0 31 0;
#X connect 33 0 48 0;
#X connect 33 0 48 1;
#X connect 34 0 36 0;
#X connect 35 0 34 0;
#X connect 37 0 25 0;
#X connect 38 0 37 0;
#X connect 39 0 29 0;
#X connect 40 0 39 0;
#X connect 41 0 32 0;
#X connect 42 0 41 0;
#X connect 43 0 38 1;
#X connect 43 0 40 1;
#X connect 43 0 42 1;
#X connect 43 0 54 1;
#X connect 44 0 46 0;
#X connect 45 0 44 0;
#X connect 46 0 48 0;
#X connect 46 0 48 1;
#X connect 47 0 46 1;
#X connect 49 0 54 0;
#X connect 50 0 54 0;
#X connect 51 0 54 0;
#X connect 52 0 54 0;
#X connect 53 0 45 0;
#X connect 54 0 53 0;
#X connect 55 0 54 0;
#X connect 56 0 54 0;
#X connect 57 0 54 0;
#X connect 58 0 0 0;
#X connect 59 0 60 0;
#X connect 60 0 43 0;
#X connect 61 0 49 0;
#X connect 61 1 50 0;
#X connect 61 2 51 0;
#X connect 61 3 56 0;
#X connect 61 4 55 0;
#X connect 61 5 52 0;
#X connect 61 6 57 0;
#X connect 61 7 62 0;
#X connect 61 8 63 0;
#X connect 61 9 64 0;
#X connect 61 10 65 0;
#X connect 61 11 66 0;
#X connect 62 0 54 0;
#X connect 63 0 54 0;
#X connect 64 0 54 0;
#X connect 65 0 54 0;
#X connect 66 0 54 0;
#X connect 69 0 72 0;
#X connect 69 0 71 0;
#X connect 69 0 76 0;
#X connect 70 0 22 0;
#X connect 71 0 27 0;
#X connect 72 0 47 0;
#X connect 73 0 74 0;
#X connect 73 0 75 0;
#X connect 74 0 47 0;
#X connect 75 0 27 0;
#X connect 76 0 20 0;
#X restore 340 555 pd Theme;
#X obj 393 507 bng 15 250 50 0 empty empty empty 17 7 0 10 -262144
-1 -1;
#X obj 47 206 netreceive -u -b;
#X text 145 111 packets from network;
#X text 165 199 UDP packets \, binary output, f 13;
#X obj 37 336 print;
#X obj 37 294 oscparse;
#X text 142 136 listen on port 8000;
#X obj 169 291 oscparse;
#X obj 169 315 list trim;
#X text 233 289 Parse the OSC message;
#X obj 169 341 route sound;
#X obj 43 409 route reload;
#X obj 134 408 route destroy;
#X obj 233 406 route shoot;
#X obj 323 405 route theme;
#X obj 317 470 route on;
#X obj 480 407 route enemy;
#X obj 471 461 route single;
#X obj 557 460 route double;
#X obj 384 468 route off;
#X obj 653 461 route distance;
#X obj 68 97 loadbang;
#X floatatom 623 539 5 0 0 0 - - -;
#X obj 609 26 loadbang;
#X msg 58 137 listen 8001;
#X connect 0 0 1 0;
#X connect 2 0 3 0;
#X connect 5 0 4 0;
#X connect 6 0 7 0;
#X connect 9 0 8 0;
#X connect 10 0 8 1;
#X connect 11 0 13 1;
#X connect 12 0 13 0;
#X connect 14 0 13 2;
#X connect 15 0 19 0;
#X connect 15 0 21 0;
#X connect 19 0 18 0;
#X connect 21 0 22 0;
#X connect 22 0 24 0;
#X connect 24 0 25 0;
#X connect 24 0 26 0;
#X connect 24 0 27 0;
#X connect 24 0 28 0;
#X connect 24 0 30 0;
#X connect 25 0 6 0;
#X connect 26 0 5 0;
#X connect 27 0 2 0;
#X connect 28 0 29 0;
#X connect 28 0 33 0;
#X connect 29 0 12 0;
#X connect 29 0 11 0;
#X connect 30 0 31 0;
#X connect 30 0 32 0;
#X connect 30 0 34 0;
#X connect 31 0 9 0;
#X connect 32 0 10 0;
#X connect 33 0 14 0;
#X connect 34 0 36 0;
#X connect 35 0 38 0;
#X connect 36 0 8 2;
#X connect 37 0 0 0;
#X connect 38 0 15 0;
