#N canvas 347 202 1036 744 10;
#X obj 387 552 *~;
#X obj 378 597 dac~;
#X obj 348 408 osc~;
#X obj 348 441 *~;
#X obj 293 504 *~;
#X obj 268 433 osc~;
#X obj 348 338 vline~;
#X msg 268 389 9;
#X msg 407 387 3;
#X obj 16 12 tgl 15 0 empty empty empty 17 7 0 10 -262144 -1 -1 0 1
;
#X msg 16 37 \; pd dsp \$1;
#X obj 358 87 bng 15 250 50 0 empty empty empty 17 7 0 10 -262144 -1
-1;
#X obj 528 251 delay 20;
#X msg 255 278 500 20;
#X msg 535 304 0 500;
#X obj 508 403 noise~;
#X obj 357 166 trigger bang bang bang;
#X obj 492 441 *~;
#X obj 468 417 vline~;
#X msg 469 383 1 20 \, 0 20 40;
#X obj 546 508 vsl 15 128 0 0.2 0 0 empty empty Volume 0 -9 0 10 -262144
-1 -1 7000 1;
#X connect 0 0 1 0;
#X connect 0 0 1 1;
#X connect 2 0 3 0;
#X connect 3 0 4 1;
#X connect 4 0 0 0;
#X connect 5 0 4 0;
#X connect 6 0 2 0;
#X connect 7 0 5 0;
#X connect 8 0 3 1;
#X connect 9 0 10 0;
#X connect 11 0 16 0;
#X connect 11 0 7 0;
#X connect 11 0 8 0;
#X connect 12 0 14 0;
#X connect 13 0 6 0;
#X connect 14 0 6 0;
#X connect 15 0 17 1;
#X connect 16 0 13 0;
#X connect 16 1 19 0;
#X connect 16 2 12 0;
#X connect 17 0 0 0;
#X connect 18 0 17 0;
#X connect 19 0 18 0;
#X connect 20 0 0 1;
