#N canvas 719 119 1321 809 10;
#X msg 276 546 disconnect;
#X obj 179 592 netsend -u -b;
#X msg 265 487 connect localhost 8000;
#X msg 268 514 connect 127.0.0.1 8000;
#X msg 177 145 1 2 3;
#X obj 174 350 oscformat cat horse pig;
#X msg 185 172 4 5 weasel 6 7 rat;
#X text 560 302 creation arguments are OSC address;
#X text 425 75 OSC messages with numbers and symbols. Except as shown
below the message will contain 'float' and 'string' data.;
#X text 622 218 set message to change OSC address;
#X obj 177 394 list prepend send;
#X obj 177 419 list trim;
#X text 22 34 1 Set IP Address : network address;
#X text 22 54 2 Set Ports (sending and listening);
#X text 22 73 3 Set OSC Addresses (routing osc data;
#X text 13 12 Key Settings;
#X floatatom 113 137 5 0 0 0 - - -;
#X msg 276 202 set sound reload;
#X msg 278 230 set sound destroy;
#X msg 278 256 set sound shoot;
#X msg 360 278 set sound theme on;
#X msg 361 310 set sound theme off;
#X msg 362 352 set sound enemy single;
#X msg 363 384 set sound enemy double;
#X obj 62 188 vsl 15 128 0 0.25 0 0 empty empty empty 0 -9 0 10 -262144
-1 -1 12700 1;
#X msg 363 414 set sound enemy distance;
#X connect 0 0 1 0;
#X connect 2 0 1 0;
#X connect 3 0 1 0;
#X connect 4 0 5 0;
#X connect 5 0 10 0;
#X connect 6 0 5 0;
#X connect 10 0 11 0;
#X connect 11 0 1 0;
#X connect 16 0 5 0;
#X connect 17 0 5 0;
#X connect 18 0 5 0;
#X connect 19 0 5 0;
#X connect 20 0 5 0;
#X connect 21 0 5 0;
#X connect 22 0 5 0;
#X connect 23 0 5 0;
#X connect 24 0 5 0;
#X connect 25 0 5 0;
