#N canvas 810 547 1171 689 10;
#X obj 377 60 bng 15 250 50 0 empty empty empty 17 7 0 10 -262144 -1
-1;
#X obj 9 11 tgl 15 0 empty empty empty 17 7 0 10 -262144 -1 -1 1 1
;
#X msg 9 36 \; pd dsp \$1;
#X obj 374 108 trigger bang bang bang bang;
#X obj 36 211 vline~;
#X obj 269 279 vline~;
#X obj 332 486 *~;
#X obj 324 539 dac~;
#X obj 396 484 vsl 15 128 0 1 0 0 empty empty Volume 0 -9 0 10 -262144
-1 -1 5700 1;
#X obj 267 196 delay 150;
#X obj 479 279 vline~;
#X obj 477 196 delay 300;
#X obj 687 281 vline~;
#X obj 685 198 delay 450;
#X obj 330 443 phasor~;
#X msg 40 183 200 10 0 \, 300 10 20 \, 0 40 40;
#X msg 267 237 400 10 0 \, 500 10 20 \, 0 40 40;
#X msg 477 237 600 10 0 \, 700 10 20 \, 0 40 40;
#X msg 685 239 800 10 0 \, 900 10 20 \, 0 40 40;
#X connect 0 0 3 0;
#X connect 1 0 2 0;
#X connect 3 0 15 0;
#X connect 3 1 9 0;
#X connect 3 2 11 0;
#X connect 3 3 13 0;
#X connect 4 0 14 0;
#X connect 5 0 14 0;
#X connect 6 0 7 0;
#X connect 6 0 7 1;
#X connect 8 0 6 1;
#X connect 9 0 16 0;
#X connect 10 0 14 0;
#X connect 11 0 17 0;
#X connect 12 0 14 0;
#X connect 13 0 18 0;
#X connect 14 0 6 0;
#X connect 15 0 4 0;
#X connect 16 0 5 0;
#X connect 17 0 10 0;
#X connect 18 0 12 0;
