#N canvas 648 635 623 404 10;
#X obj 100 26 bng 15 250 50 0 empty empty empty 17 7 0 10 -262144 -1
-1;
#X obj 100 56 trigger bang bang;
#X obj 96 149 vline~;
#X obj 96 287 *~;
#X obj 88 340 dac~;
#X obj 291 216 vsl 15 128 0 1 0 0 empty empty Volume 0 -9 0 10 -262144
-1 -1 3600 1;
#X obj 9 11 tgl 15 0 empty empty empty 17 7 0 10 -262144 -1 -1 1 1
;
#X msg 9 36 \; pd dsp \$1;
#X obj 241 168 vline~;
#X obj 234 200 phasor~;
#X obj 234 109 delay 30;
#X msg 242 141 500 10 0 \, 0 200 60;
#X obj 92 190 phasor~;
#X msg 97 110 600 10 0 \, 0 20 40;
#X connect 0 0 1 0;
#X connect 1 0 13 0;
#X connect 1 1 10 0;
#X connect 2 0 12 0;
#X connect 3 0 4 0;
#X connect 3 0 4 1;
#X connect 5 0 3 1;
#X connect 6 0 7 0;
#X connect 8 0 9 0;
#X connect 9 0 3 0;
#X connect 10 0 11 0;
#X connect 11 0 8 0;
#X connect 12 0 3 0;
#X connect 13 0 2 0;
