#N canvas 297 228 1118 737 10;
#X obj 118 427 qlist;
#X msg 189 289 rewind;
#X floatatom 111 455 0 0 0 0 - - -;
#X obj 165 461 print done;
#X text 127 143 set relative tempo;
#X text 243 289 go to beginning (and stop);
#X msg 191 312 clear;
#X text 232 312 empty the qlist;
#X floatatom 513 114 5 0 0 0 - - -;
#X obj 485 106 bng 15 250 50 0 empty empty empty 17 7 0 10 -262144
-1 -1;
#X obj 867 179 unpack 0 0 0;
#X floatatom 856 206 5 0 0 0 - - -;
#X floatatom 897 206 5 0 0 0 - - -;
#X floatatom 940 206 5 0 0 0 - - -;
#X obj 513 77 r mel;
#X obj 867 150 r chd;
#X obj 165 484 s selScript;
#X msg 174 377 read script1.txt;
#X obj 182 396 r loadScript;
#X obj 174 191 r playScript;
#X obj 174 213 bng 15 250 50 0 empty empty empty 17 7 0 10 -262144
-1 -1;
#X obj 174 238 spigot 0;
#X obj 219 214 tgl 15 0 empty empty empty 17 7 0 10 -262144 -1 -1 1
1;
#N canvas 474 512 363 414 readScripts 0;
#X obj 114 69 bng 15 250 50 0 empty empty empty 17 7 0 10 -262144 -1
-1;
#X obj 91 166 bng 15 250 50 0 empty empty empty 17 7 0 10 -262144 -1
-1;
#X obj 119 165 bng 15 250 50 0 empty empty empty 17 7 0 10 -262144
-1 -1;
#X obj 146 164 bng 15 250 50 0 empty empty empty 17 7 0 10 -262144
-1 -1;
#X obj 114 43 r selScript;
#X obj 133 360 s loadScript;
#X obj 46 361 s playScript;
#X obj 82 313 t b a;
#X obj 169 168 bng 15 250 50 0 empty empty empty 17 7 0 10 -262144
-1 -1;
#X msg 107 220 read script0.txt;
#X msg 130 242 read script1.txt;
#X msg 148 264 read script2.txt;
#X msg 163 286 read script3.txt;
#X obj 114 94 random 5;
#X obj 112 131 select 0 1 2 3 4;
#X msg 179 309 read script4.txt;
#X obj 194 173 bng 15 250 50 0 empty empty empty 17 7 0 10 -262144
-1 -1;
#X connect 0 0 13 0;
#X connect 1 0 9 0;
#X connect 2 0 10 0;
#X connect 3 0 11 0;
#X connect 4 0 0 0;
#X connect 7 0 6 0;
#X connect 7 1 5 0;
#X connect 8 0 12 0;
#X connect 9 0 7 0;
#X connect 10 0 7 0;
#X connect 11 0 7 0;
#X connect 12 0 7 0;
#X connect 13 0 14 0;
#X connect 14 0 1 0;
#X connect 14 1 2 0;
#X connect 14 2 3 0;
#X connect 14 3 8 0;
#X connect 14 4 16 0;
#X connect 15 0 7 0;
#X connect 16 0 15 0;
#X restore 145 115 pd readScripts;
#X obj 832 567 dac~;
#X obj 843 492 osc~;
#X floatatom 843 445 5 0 0 0 - - -;
#X obj 843 528 *~;
#X floatatom 1058 479 5 0 0 0 - - -;
#X obj 902 567 dac~;
#X obj 913 492 osc~;
#X floatatom 913 445 5 0 0 0 - - -;
#X obj 913 528 *~;
#X obj 960 565 dac~;
#X obj 971 490 osc~;
#X floatatom 971 443 5 0 0 0 - - -;
#X obj 971 526 *~;
#X obj 832 567 dac~;
#X obj 843 492 osc~;
#X floatatom 843 445 5 0 0 0 - - -;
#X obj 843 528 *~;
#X obj 842 416 mtof;
#X obj 842 389 + 0;
#X obj 911 416 mtof;
#X obj 911 389 + 0;
#X obj 969 415 mtof;
#X obj 969 388 + 0;
#X floatatom 794 264 5 0 0 0 - - -;
#X obj 28 26 tgl 15 0 empty empty empty 17 7 0 10 -262144 -1 -1 1 1
;
#X msg 28 51 \; pd dsp \$1;
#X obj 516 455 phasor~;
#X floatatom 516 426 5 0 0 0 - - -;
#X obj 516 546 *~;
#X floatatom 530 521 5 0 0 0 - - -;
#X obj 507 591 dac~;
#X msg 426 192 0;
#X msg 453 191 2;
#X msg 482 192 4;
#X msg 568 195 9;
#X obj 516 399 mtof;
#X obj 514 349 + 0;
#X msg 537 194 7;
#X msg 510 193 5;
#X msg 597 196 11;
#X msg 76 142 tempo 1;
#X obj 784 150 loadbang;
#X obj 574 377 vsl 15 128 0 1 0 0 empty empty empty 0 -9 0 10 -262144
-1 -1 1000 1;
#X obj 1055 329 vsl 15 128 0 1 0 0 empty empty empty 0 -9 0 10 -262144
-1 -1 1200 1;
#X msg 792 208 60;
#X obj 511 142 select 1 2 3 4 5 6 7 8 9 10 11 12;
#X msg 625 197 12;
#X msg 654 196 14;
#X msg 685 196 16;
#X msg 712 196 17;
#X msg 743 196 19;
#X text 245 30 Based on resequencing patch edited to be in a minor
;
#X text 54 548 Raise both volumes as desired \, activate dsp \, check
the box on the left \, then click the bang to start;
#X text 253 655 WIP of course;
#X connect 0 0 2 0;
#X connect 0 1 3 0;
#X connect 0 1 16 0;
#X connect 1 0 0 0;
#X connect 6 0 0 0;
#X connect 8 0 69 0;
#X connect 10 0 11 0;
#X connect 10 1 12 0;
#X connect 10 2 13 0;
#X connect 11 0 42 0;
#X connect 12 0 44 0;
#X connect 13 0 46 0;
#X connect 14 0 8 0;
#X connect 14 0 9 0;
#X connect 15 0 10 0;
#X connect 17 0 0 0;
#X connect 18 0 0 0;
#X connect 19 0 20 0;
#X connect 20 0 21 0;
#X connect 21 0 0 0;
#X connect 22 0 21 1;
#X connect 25 0 27 0;
#X connect 26 0 25 0;
#X connect 27 0 24 1;
#X connect 27 0 24 0;
#X connect 28 0 27 1;
#X connect 28 0 32 1;
#X connect 28 0 36 1;
#X connect 30 0 32 0;
#X connect 31 0 30 0;
#X connect 32 0 29 1;
#X connect 32 0 29 0;
#X connect 34 0 36 0;
#X connect 35 0 34 0;
#X connect 36 0 33 1;
#X connect 36 0 33 0;
#X connect 38 0 40 0;
#X connect 39 0 38 0;
#X connect 40 0 37 1;
#X connect 40 0 37 0;
#X connect 41 0 26 0;
#X connect 42 0 41 0;
#X connect 43 0 31 0;
#X connect 44 0 43 0;
#X connect 45 0 35 0;
#X connect 46 0 45 0;
#X connect 47 0 42 1;
#X connect 47 0 44 1;
#X connect 47 0 46 1;
#X connect 47 0 60 1;
#X connect 48 0 49 0;
#X connect 50 0 52 0;
#X connect 51 0 50 0;
#X connect 52 0 54 0;
#X connect 52 0 54 1;
#X connect 53 0 52 1;
#X connect 55 0 60 0;
#X connect 56 0 60 0;
#X connect 57 0 60 0;
#X connect 58 0 60 0;
#X connect 59 0 51 0;
#X connect 60 0 59 0;
#X connect 61 0 60 0;
#X connect 62 0 60 0;
#X connect 63 0 60 0;
#X connect 64 0 0 0;
#X connect 65 0 68 0;
#X connect 66 0 53 0;
#X connect 67 0 28 0;
#X connect 68 0 47 0;
#X connect 69 0 55 0;
#X connect 69 1 56 0;
#X connect 69 2 57 0;
#X connect 69 3 62 0;
#X connect 69 4 61 0;
#X connect 69 5 58 0;
#X connect 69 6 63 0;
#X connect 69 7 70 0;
#X connect 69 8 71 0;
#X connect 69 9 72 0;
#X connect 69 10 73 0;
#X connect 69 11 74 0;
#X connect 70 0 60 0;
#X connect 71 0 60 0;
#X connect 72 0 60 0;
#X connect 73 0 60 0;
#X connect 74 0 60 0;
